<?xml version="1.0" encoding="UTF-8"?>
<svg id="Layer_1" data-name="Layer 1" xmlns="http://www.w3.org/2000/svg" viewBox="0 0 218.07 189.97">
  <defs>
    <style>
      .cls-1 {
        fill: #13bfdd;
        stroke-width: 0px;
      }
    </style>
  </defs>
  <path class="cls-1" d="m141.11,0c3,0,6,0,8.99,0,1.72.28,3.44.77,5.17.81,30.22.79,54.91,21.56,60.93,51.26.47,2.33,1.23,4.61,1.86,6.91v14c-.33.5-.9.98-.96,1.51-1.73,14.59-7.93,27.31-16.48,38.98-17.17,23.44-34.38,46.85-51.7,70.18-1.81,2.44-4.52,4.22-6.81,6.31h-70.96c-1.65-3.01-3.7-5.87-4.89-9.05-15.37-41.03-30.66-82.09-45.9-123.16C13.5,39.24,6.78,20.67,0,2.13c4.53-.38,9.05-.82,13.58-1.12,5.86-.39,11.73-.68,17.6-1.01h22.99c4.47,1.89,6.56,5.55,7.72,10.04,2.03,7.85,4.12,15.7,6.39,23.49.67,2.29,1.99,4.39,3.02,6.58,1.03-11.32.85-22.27,1.2-33.2.07-2.09,2.27-4.1,3.48-6.15,11.33,0,22.66.01,33.99.02,6.8.07,13.61.27,20.41.17C133.96.9,137.54.33,141.11,0Zm-30.82,157.38c1.16-1.29,2.01-2.06,2.64-2.98,14.04-20.41,28.09-40.81,42.06-61.26,4.8-7.03,7.22-14.88,7.54-23.41.64-16.63-6.82-25.16-23.24-25.69-18.6-.59-37.22-.73-55.83-1.04-3.61-.06-7.22,0-11.89,0,13.04,38.52,25.79,76.2,38.72,114.39Z"/>
</svg>