<?xml version="1.0" encoding="UTF-8"?>
<svg id="Layer_1" data-name="Layer 1" xmlns="http://www.w3.org/2000/svg" viewBox="0 0 133.18 116">
  <defs>
    <style>
      .cls-1 {
        fill: #12bfde;
        stroke-width: 0px;
      }
    </style>
  </defs>
  <path class="cls-1" d="m44.44,26.02V.11c8.39,0,16.16-.09,23.92.02,10.44.15,20.92,0,31.31.81,20.52,1.61,38.35,23.09,32.32,49.21-2.59,11.25-9.61,19.52-15.99,28.34-8.27,11.43-16.62,22.8-25.22,33.98-1.36,1.77-4.22,3.28-6.42,3.33-12.46.32-24.93.11-37.4.19-2.52.02-4.27-.29-5.32-3.13C28.15,76.33,14.53,39.84.95,3.34.66,2.58.48,1.77,0,.11c4.88,0,9.41,0,13.94,0,5.65,0,11.32.25,16.95-.08,4-.23,5.72.94,6.76,5.06,1.78,7.08,4.53,13.91,6.88,20.84.26,1.43.34,2.92.8,4.28,4.65,13.97,9.36,27.93,14.07,41.88,2.68,7.92,5.4,15.82,8.38,24.55,9.18-13.46,17.69-26.3,26.61-38.84,4.09-5.75,5.77-11.75,5.15-18.69-.66-7.33-4.49-12.04-11.76-12.32-14.44-.55-28.89-.55-43.34-.77Z"/>
</svg>